<svg width="200" height="200" viewBox="0 0 200 200" fill="none" xmlns="http://www.w3.org/2000/svg">
<circle cx="100" cy="100" r="98" fill="url(#paint0_linear)" fill-opacity="0.12" stroke="#219653" stroke-width="4"/>
<path d="M71.6834 87.7412C68.9604 84.2617 63.9323 83.6485 60.4529 86.3716C56.9734 89.0946 56.3603 94.1226 59.0833 97.6021L71.6834 87.7412ZM142.224 65.9138C144.386 62.0605 143.014 57.1843 139.161 55.0227C135.307 52.861 130.431 54.2325 128.27 58.0858L142.224 65.9138ZM96.0551 131.863L89.7551 136.794C91.4043 138.901 93.9978 140.044 96.6658 139.84C99.3339 139.636 101.723 138.111 103.032 135.777L96.0551 131.863ZM59.0833 97.6021L89.7551 136.794L102.355 126.933L71.6834 87.7412L59.0833 97.6021ZM103.032 135.777L142.224 65.9138L128.27 58.0858L89.078 127.95L103.032 135.777Z" fill="#219653"/>
<defs>
<linearGradient id="paint0_linear" x1="178" y1="11.5" x2="7.50001" y2="198" gradientUnits="userSpaceOnUse">
<stop stop-color="#219653"/>
<stop offset="1" stop-color="#217396"/>
</linearGradient>
</defs>
</svg>
