<svg width="1em" height="1em" viewBox="0 0 23 17" fill="none" xmlns="http://www.w3.org/2000/svg">
<path d="M6.48145 16.9775H15.9033C17.7842 16.9775 18.6104 16.002 18.9004 14.1299L20.166 5.85938C21.4053 5.81543 22.1436 4.98047 22.1436 3.73242V2.49316C22.1436 1.20117 21.3613 0.357422 20.0693 0.357422H2.32422C1.06738 0.357422 0.241211 1.20117 0.241211 2.49316V3.73242C0.241211 4.98047 0.988281 5.81543 2.21875 5.85938L3.48438 14.1299C3.77441 16.002 4.60059 16.9775 6.48145 16.9775ZM2.64062 4.0752C2.27148 4.0752 2.0957 3.89062 2.0957 3.52148V2.7041C2.0957 2.33496 2.27148 2.15039 2.64062 2.15039H19.7529C20.1221 2.15039 20.2891 2.33496 20.2891 2.7041V3.52148C20.2891 3.89062 20.1221 4.0752 19.7529 4.0752H2.64062ZM6.62207 15.0176C5.92773 15.0176 5.56738 14.7188 5.45312 13.9453L4.1875 5.86816H18.1973L16.9316 13.9453C16.8174 14.7188 16.457 15.0176 15.7627 15.0176H6.62207ZM8.85449 13.5586C9.07422 13.5586 9.25879 13.4707 9.41699 13.3125L11.1836 11.5283L12.959 13.3125C13.1172 13.4619 13.3018 13.5586 13.5303 13.5586C13.9785 13.5586 14.3389 13.1807 14.3389 12.7412C14.3389 12.4951 14.2598 12.3281 14.0928 12.1611L12.335 10.4033L14.1016 8.62793C14.2686 8.46094 14.3477 8.28516 14.3477 8.06543C14.3477 7.6084 13.9873 7.24805 13.5303 7.24805C13.3193 7.24805 13.1436 7.32715 12.9678 7.49414L11.1836 9.27832L9.41699 7.49414C9.25 7.33594 9.07422 7.25684 8.85449 7.25684C8.40625 7.25684 8.03711 7.61719 8.03711 8.06543C8.03711 8.29395 8.11621 8.47852 8.2832 8.63672L10.0498 10.4033L8.2832 12.1699C8.125 12.3281 8.03711 12.5039 8.03711 12.7412C8.03711 13.1807 8.40625 13.5586 8.85449 13.5586Z" fill="currentColor"/>
</svg>
