<svg width="1em" height="1em" viewBox="0 0 19 20" fill="none" xmlns="http://www.w3.org/2000/svg">
<path d="M10.8135 18.9268L17.6074 14.9893C18.3809 14.541 18.75 14.1367 18.75 13.5039C18.75 12.8799 18.3809 12.4668 17.6074 12.0186L13.7402 9.77734L17.6074 7.53613C18.3809 7.08789 18.75 6.68359 18.75 6.05078C18.75 5.42676 18.3809 5.01367 17.6074 4.56543L10.8135 0.62793C10.3213 0.337891 9.94336 0.197266 9.54785 0.197266C9.16113 0.197266 8.7832 0.337891 8.29102 0.62793L1.49707 4.56543C0.723633 5.01367 0.354492 5.42676 0.354492 6.05078C0.354492 6.68359 0.723633 7.08789 1.49707 7.53613L5.36426 9.77734L1.49707 12.0186C0.723633 12.4668 0.354492 12.8799 0.354492 13.5039C0.354492 14.1367 0.723633 14.541 1.49707 14.9893L8.29102 18.9268C8.7832 19.2168 9.16113 19.3574 9.54785 19.3574C9.94336 19.3574 10.3213 19.2168 10.8135 18.9268ZM9.54785 11.9043C9.94336 11.9043 10.3213 11.7637 10.8135 11.4736L11.7539 10.9287L16.1396 13.4248C16.1748 13.4424 16.2012 13.4688 16.2012 13.5039C16.2012 13.5479 16.1748 13.5654 16.1396 13.5918L9.88184 17.1426C9.75 17.2129 9.65332 17.248 9.54785 17.248C9.44238 17.248 9.3457 17.2129 9.22266 17.1426L2.96484 13.5918C2.9209 13.5654 2.90332 13.5479 2.90332 13.5039C2.90332 13.4688 2.9209 13.4424 2.96484 13.4248L7.35059 10.9287L8.29102 11.4736C8.7832 11.7637 9.16113 11.9043 9.54785 11.9043Z" fill="currentColor"/>
</svg>
