<svg width="1em" height="1em" viewBox="0 0 20 20" fill="none" xmlns="http://www.w3.org/2000/svg">
<path d="M0.241211 4.60059C0.241211 5.25098 0.698242 5.69922 1.36621 5.69922H3.29102V16.2109C3.29102 18.1885 4.29297 19.1904 6.27051 19.1904H16.6592C18.4521 19.1904 19.6562 17.9512 19.6562 16.0967V13.5215C19.6562 12.8711 19.1992 12.4229 18.5312 12.4229H17.8193V3.11523C17.8193 1.16406 16.7822 0.118164 14.8398 0.118164H2.77246C1.26953 0.118164 0.241211 1.16406 0.241211 2.75488V4.60059ZM2.10449 3.83594V2.75488C2.10449 2.2627 2.38574 1.98145 2.77246 1.98145C3.17676 1.98145 3.44043 2.2627 3.44043 2.75488V3.83594H2.10449ZM5.30371 16.0703V2.95703C5.30371 2.6582 5.27734 2.38574 5.2334 2.13086H14.6201C15.4199 2.13086 15.8066 2.54395 15.8066 3.2998V12.4229H8.63477C7.9668 12.4229 7.50977 12.8711 7.50977 13.5215V16.0703C7.50977 16.7383 7.05273 17.1777 6.41113 17.1865C5.76074 17.1777 5.30371 16.7207 5.30371 16.0703ZM7.65918 5.72559H13.46C13.7852 5.72559 14.0312 5.4707 14.0312 5.14551C14.0312 4.8291 13.7852 4.58301 13.46 4.58301H7.65918C7.3252 4.58301 7.0791 4.8291 7.0791 5.14551C7.0791 5.4707 7.3252 5.72559 7.65918 5.72559ZM7.65918 8.66992H10.7266C11.0518 8.66992 11.2979 8.42383 11.2979 8.10742C11.2979 7.78223 11.0518 7.52734 10.7266 7.52734H7.65918C7.3252 7.52734 7.0791 7.78223 7.0791 8.10742C7.0791 8.42383 7.3252 8.66992 7.65918 8.66992ZM9.26758 17.1865C9.43457 16.835 9.52246 16.4395 9.52246 15.9648V14.4355H17.6436V15.9473C17.6436 16.6943 17.1953 17.1865 16.5098 17.1865H9.26758Z" fill="currentColor"/>
</svg>
